<?xml version="1.0" standalone="no"?>
<!DOCTYPE svg PUBLIC "-//W3C//DTD SVG 20010904//EN"
        "http://www.w3.org/TR/2001/REC-SVG-20010904/DTD/svg10.dtd">
<svg version="1.0" xmlns="http://www.w3.org/2000/svg"
     width="794.000000pt" height="169.000000pt" viewBox="0 0 794.000000 169.000000"
     preserveAspectRatio="xMidYMid meet">

    <g transform="translate(0.000000,169.000000) scale(0.100000,-0.100000)"
       fill="#000000" stroke="none">
        <path d="M5952 1425 c-94 -29 -150 -101 -159 -205 -6 -61 14 -117 56 -154 28
-25 84 -26 111 -1 24 22 25 55 4 112 -29 75 9 123 97 123 52 0 99 -43 99 -90
0 -77 -60 -142 -205 -225 -121 -69 -148 -94 -148 -135 0 -24 7 -40 27 -57 27
-23 31 -23 249 -23 256 0 267 3 267 70 0 64 -25 74 -169 68 l-118 -5 57 29
c123 61 198 154 207 257 7 77 -10 124 -62 177 -69 68 -202 94 -313 59z"/>
        <path d="M6557 1429 c-23 -13 -47 -68 -47 -107 0 -16 -7 -52 -16 -81 -13 -44
-29 -67 -95 -132 -69 -69 -79 -83 -79 -114 0 -25 8 -44 25 -60 24 -25 26 -25
203 -25 l180 0 4 -54 c6 -68 20 -86 67 -86 74 0 76 5 79 217 3 171 2 191 -15
211 -27 33 -73 38 -106 12 -25 -20 -27 -27 -27 -91 l0 -69 -105 0 -106 0 37
33 c93 80 151 227 120 301 -21 52 -74 71 -119 45z"/>
        <path d="M6886 1414 c-22 -21 -20 -77 2 -97 15 -14 48 -17 196 -19 l177 -3
-81 -95 c-99 -116 -140 -195 -147 -283 -7 -88 8 -133 51 -147 40 -13 79 -1 99
32 8 13 17 60 20 104 7 113 39 180 143 302 94 109 112 147 92 189 l-13 28
-262 3 c-228 2 -263 0 -277 -14z"/>
        <path d="M995 1355 c-30 -11 -96 -71 -267 -242 -318 -320 -318 -287 7 -610
235 -232 261 -251 331 -240 78 13 132 91 118 171 -6 35 -27 61 -172 208 l-166
168 161 163 c169 172 191 204 180 274 -15 89 -104 140 -192 108z"/>
        <path d="M2168 1305 c-17 -10 -31 -29 -37 -53 -7 -22 -11 -172 -11 -374 l0
-337 24 -28 c20 -23 32 -28 70 -28 51 0 82 23 90 65 2 14 5 124 5 244 l1 220
64 -95 c83 -121 116 -153 160 -153 51 0 75 22 156 140 l75 108 3 -239 c2 -227
3 -240 23 -262 12 -12 34 -25 50 -28 36 -8 97 20 105 49 2 11 4 182 2 378 -3
350 -3 358 -24 379 -29 29 -101 36 -141 15 -21 -10 -66 -67 -134 -165 -57 -83
-106 -148 -108 -145 -3 3 -48 66 -101 141 -53 75 -108 145 -122 156 -35 26
-114 32 -150 12z"/>
        <path d="M1655 1101 c-165 -41 -273 -217 -231 -379 26 -103 72 -161 162 -206
113 -57 283 -54 404 7 100 50 124 103 70 157 -27 27 -57 25 -133 -11 -84 -39
-158 -47 -225 -25 -47 16 -102 63 -102 86 0 5 88 10 196 12 l196 3 25 29 c23
27 25 36 21 97 -8 112 -66 185 -177 224 -45 15 -153 19 -206 6z m169 -156 c22
-15 51 -63 43 -72 -2 -2 -64 -2 -138 -1 l-133 3 33 37 c18 21 47 42 65 48 39
11 100 4 130 -15z"/>
        <path d="M3239 1097 c-99 -28 -182 -103 -215 -194 -18 -52 -17 -169 2 -227 20
-58 92 -134 157 -164 96 -45 247 -46 341 -1 64 30 118 80 146 135 35 69 41
202 12 267 -30 68 -93 130 -164 162 -74 33 -204 43 -279 22z m220 -190 c13
-12 30 -36 37 -54 57 -133 -88 -263 -216 -194 -40 21 -80 89 -80 135 0 40 28
94 61 119 55 40 150 37 198 -6z"/>
        <path d="M4087 1095 c-54 -20 -92 -50 -131 -101 l-33 -44 -22 60 c-12 33 -32
66 -44 75 -33 23 -81 19 -116 -11 -37 -31 -39 -54 -11 -143 15 -48 22 -106 27
-234 6 -152 8 -171 27 -188 24 -23 103 -26 131 -5 21 15 33 84 34 199 1 100
37 171 110 219 40 27 116 24 146 -6 29 -29 33 -53 38 -235 4 -142 5 -145 31
-168 56 -47 145 -24 162 42 11 43 -2 347 -16 385 -24 64 -68 117 -116 140 -58
29 -163 36 -217 15z"/>
        <path d="M4695 1097 c-91 -30 -157 -88 -197 -172 -23 -50 -28 -73 -28 -136 0
-129 64 -226 183 -279 137 -61 366 -32 460 57 35 34 36 75 2 108 -32 33 -59
31 -141 -7 -87 -42 -184 -46 -250 -11 -34 18 -74 59 -74 77 0 3 87 6 194 8
190 3 195 4 220 27 23 21 26 33 26 87 0 73 -10 103 -51 155 -46 58 -121 90
-221 95 -52 3 -98 -1 -123 -9z m159 -141 c34 -14 66 -50 66 -73 0 -10 -31 -13
-130 -13 -73 0 -130 4 -130 9 0 5 12 23 26 40 39 47 108 62 168 37z"/>
        <path d="M5700 1100 c-32 -5 -38 -11 -75 -85 -40 -81 -81 -167 -132 -282 l-28
-62 -100 197 c-55 108 -108 204 -117 214 -12 12 -33 18 -63 18 -57 0 -95 -32
-95 -82 0 -40 210 -445 257 -495 l32 -34 -30 -69 c-16 -38 -29 -84 -29 -103 0
-74 96 -106 147 -49 13 15 73 133 132 262 60 129 131 283 160 342 58 123 65
172 29 205 -30 26 -45 30 -88 23z"/>
    </g>
</svg>
